# xmcd
#
# Track frame offsets: 
#        150
#        12693
#        25573
#        37979
#        50387
#        63486
#        76567
#        90089
#        103906
#        116933
#        131126
#        143589
#        155635
#        168351
#        180430
#        191822
#        204083
#        215796
#        227863
#        239652
#        253291
#        267471
#        278471
#        289408
#        300865
#
# Disc length: 4155 seconds
#
# Revision: 0
# Processed by: cddbd v1.5.1PL2 Copyright (c) Steve Scherf et al.
# Submitted via: ExactAudioCopy v0.95a5
#
DISCID=63103919
DTITLE=Jimmy Witherspoon - Ain't Nobody's Business
DYEAR=2002
DGENRE=Blues
TTITLE0=Hey Mr. Landlord
TTITLE1=Wandering Gal Blues
TTITLE2=Cain River Blues
TTITLE3=Money's Getting Cheaper
TTITLE4=Skid Row Blues
TTITLE5=Ain't Nobody's Business (part 1)
TTITLE6=Ain't Nobody's Business (part 2)
TTITLE7=Backwater Blues
TTITLE8=Frogimore Blues
TTITLE9=In The Evening
TTITLE10=Money Eyes Woman
TTITLE11=Spoon Calls Hootie
TTITLE12=Long About Dawn
TTITLE13=Six Foot Two Blues
TTITLE14=Drunk, Broke And Hungry
TTITLE15=Cold Blooded Boogie
TTITLE16=Lush Head Woman
TTITLE17=Thelma Lee Blues
TTITLE18=I'm Just Wandering (part 1)
TTITLE19=Just A Country Boy
TTITLE20=Love And Friendship
TTITLE21=I'm Just Wandering (part 2)
TTITLE22=I'm Just A Lady's Man
TTITLE23=Sweet Lovin' Baby
TTITLE24=Call My Baby
EXTD=
EXTT0=
EXTT1=
EXTT2=
EXTT3=
EXTT4=
EXTT5=
EXTT6=
EXTT7=
EXTT8=
EXTT9=
EXTT10=
EXTT11=
EXTT12=
EXTT13=
EXTT14=
EXTT15=
EXTT16=
EXTT17=
EXTT18=
EXTT19=
EXTT20=
EXTT21=
EXTT22=
EXTT23=
EXTT24=
PLAYORDER=
